G04 #@! TF.GenerationSoftware,KiCad,Pcbnew,5.1.7-a382d34a8~87~ubuntu16.04.1*
G04 #@! TF.CreationDate,2021-01-01T21:30:34+01:00*
G04 #@! TF.ProjectId,basic-eurorack-power-supply,62617369-632d-4657-9572-6f7261636b2d,rev?*
G04 #@! TF.SameCoordinates,Original*
G04 #@! TF.FileFunction,Copper,L1,Top*
G04 #@! TF.FilePolarity,Positive*
%FSLAX46Y46*%
G04 Gerber Fmt 4.6, Leading zero omitted, Abs format (unit mm)*
G04 Created by KiCad (PCBNEW 5.1.7-a382d34a8~87~ubuntu16.04.1) date 2021-01-01 21:30:34*
%MOMM*%
%LPD*%
G01*
G04 APERTURE LIST*
G04 #@! TA.AperFunction,EtchedComponent*
%ADD10C,0.010000*%
G04 #@! TD*
G04 #@! TA.AperFunction,ComponentPad*
%ADD11O,1.700000X1.700000*%
G04 #@! TD*
G04 #@! TA.AperFunction,ComponentPad*
%ADD12O,2.400000X2.400000*%
G04 #@! TD*
G04 #@! TA.AperFunction,ComponentPad*
%ADD13R,2.400000X2.400000*%
G04 #@! TD*
G04 #@! TA.AperFunction,ComponentPad*
%ADD14C,2.400000*%
G04 #@! TD*
G04 #@! TA.AperFunction,ComponentPad*
%ADD15O,2.200000X2.200000*%
G04 #@! TD*
G04 #@! TA.AperFunction,ComponentPad*
%ADD16R,2.200000X2.200000*%
G04 #@! TD*
G04 #@! TA.AperFunction,ComponentPad*
%ADD17R,1.800000X1.800000*%
G04 #@! TD*
G04 #@! TA.AperFunction,ComponentPad*
%ADD18C,1.800000*%
G04 #@! TD*
G04 #@! TA.AperFunction,ComponentPad*
%ADD19O,1.600000X1.600000*%
G04 #@! TD*
G04 #@! TA.AperFunction,ComponentPad*
%ADD20C,1.600000*%
G04 #@! TD*
G04 #@! TA.AperFunction,ComponentPad*
%ADD21R,2.000000X1.905000*%
G04 #@! TD*
G04 #@! TA.AperFunction,ComponentPad*
%ADD22O,2.000000X1.905000*%
G04 #@! TD*
G04 #@! TA.AperFunction,ComponentPad*
%ADD23R,1.600000X1.600000*%
G04 #@! TD*
G04 #@! TA.AperFunction,ViaPad*
%ADD24C,3.600000*%
G04 #@! TD*
G04 #@! TA.AperFunction,Conductor*
%ADD25C,1.750000*%
G04 #@! TD*
G04 APERTURE END LIST*
D10*
G36*
X97013349Y-839569D02*
G01*
X97138983Y-851313D01*
X97268376Y-870482D01*
X97399949Y-896970D01*
X97532121Y-930670D01*
X97543815Y-934002D01*
X97656468Y-969404D01*
X97759327Y-1008300D01*
X97856582Y-1052297D01*
X97871138Y-1059532D01*
X97934811Y-1093416D01*
X97988532Y-1126506D01*
X98036043Y-1161416D01*
X98081085Y-1200758D01*
X98101122Y-1220182D01*
X98132793Y-1253167D01*
X98156378Y-1281662D01*
X98174984Y-1309768D01*
X98189316Y-1336642D01*
X98201147Y-1361217D01*
X98208987Y-1380283D01*
X98213658Y-1397938D01*
X98215981Y-1418281D01*
X98216775Y-1445411D01*
X98216861Y-1474226D01*
X98216609Y-1510313D01*
X98215404Y-1536246D01*
X98212569Y-1555982D01*
X98207428Y-1573476D01*
X98199306Y-1592683D01*
X98195060Y-1601752D01*
X98178673Y-1630900D01*
X98156829Y-1662771D01*
X98134704Y-1689946D01*
X98096149Y-1732138D01*
X97987969Y-2277733D01*
X97966333Y-2386479D01*
X97947157Y-2482034D01*
X97930293Y-2565077D01*
X97915595Y-2636286D01*
X97902918Y-2696339D01*
X97892114Y-2745914D01*
X97883037Y-2785690D01*
X97875540Y-2816343D01*
X97869477Y-2838553D01*
X97864702Y-2852998D01*
X97862713Y-2857597D01*
X97836758Y-2896303D01*
X97801377Y-2930466D01*
X97761256Y-2955631D01*
X97758006Y-2957112D01*
X97747596Y-2961663D01*
X97737651Y-2965573D01*
X97727339Y-2968717D01*
X97715825Y-2970971D01*
X97702274Y-2972212D01*
X97685852Y-2972316D01*
X97665724Y-2971159D01*
X97641057Y-2968618D01*
X97611016Y-2964568D01*
X97574766Y-2958886D01*
X97531474Y-2951448D01*
X97480305Y-2942130D01*
X97420424Y-2930809D01*
X97350997Y-2917360D01*
X97271190Y-2901660D01*
X97180169Y-2883585D01*
X97077098Y-2863012D01*
X96961145Y-2839816D01*
X96943333Y-2836252D01*
X96809114Y-2809306D01*
X96688657Y-2784938D01*
X96581855Y-2763125D01*
X96488601Y-2743845D01*
X96408787Y-2727074D01*
X96342307Y-2712790D01*
X96289053Y-2700970D01*
X96248917Y-2691591D01*
X96221793Y-2684631D01*
X96207573Y-2680066D01*
X96207047Y-2679831D01*
X96165827Y-2653240D01*
X96131447Y-2616403D01*
X96105789Y-2572286D01*
X96090738Y-2523853D01*
X96087536Y-2491592D01*
X96088826Y-2479586D01*
X96092694Y-2454877D01*
X96098927Y-2418595D01*
X96107315Y-2371869D01*
X96117648Y-2315828D01*
X96119344Y-2306797D01*
X96560210Y-2306797D01*
X96562624Y-2309429D01*
X96571021Y-2312963D01*
X96586208Y-2317580D01*
X96608990Y-2323458D01*
X96640175Y-2330776D01*
X96680570Y-2339716D01*
X96730980Y-2350455D01*
X96792212Y-2363174D01*
X96865074Y-2378052D01*
X96950372Y-2395269D01*
X97024472Y-2410120D01*
X97103509Y-2425920D01*
X97178463Y-2440898D01*
X97248190Y-2454825D01*
X97311544Y-2467474D01*
X97367381Y-2478614D01*
X97414556Y-2488019D01*
X97451925Y-2495460D01*
X97478343Y-2500709D01*
X97492666Y-2503537D01*
X97494955Y-2503975D01*
X97500679Y-2498914D01*
X97503403Y-2492375D01*
X97505357Y-2483540D01*
X97509827Y-2462011D01*
X97516580Y-2428936D01*
X97525387Y-2385463D01*
X97536016Y-2332739D01*
X97548236Y-2271911D01*
X97561816Y-2204128D01*
X97576525Y-2130536D01*
X97592132Y-2052284D01*
X97603074Y-1997328D01*
X97619279Y-1916321D01*
X97634913Y-1839021D01*
X97649729Y-1766600D01*
X97663478Y-1700228D01*
X97675913Y-1641078D01*
X97686786Y-1590321D01*
X97695851Y-1549127D01*
X97702858Y-1518668D01*
X97707561Y-1500115D01*
X97709278Y-1494970D01*
X97716395Y-1480118D01*
X97719442Y-1471596D01*
X97719444Y-1471522D01*
X97713310Y-1465979D01*
X97696544Y-1456319D01*
X97671602Y-1443703D01*
X97640940Y-1429291D01*
X97607014Y-1414243D01*
X97572279Y-1399720D01*
X97544418Y-1388829D01*
X97424437Y-1349187D01*
X97296038Y-1316761D01*
X97163340Y-1292293D01*
X97030463Y-1276522D01*
X96901525Y-1270187D01*
X96883404Y-1270096D01*
X96836588Y-1270257D01*
X96802076Y-1270919D01*
X96778061Y-1272498D01*
X96762736Y-1275406D01*
X96754293Y-1280061D01*
X96750926Y-1286875D01*
X96750827Y-1296264D01*
X96751252Y-1300425D01*
X96750332Y-1310974D01*
X96746852Y-1334186D01*
X96741028Y-1368887D01*
X96733075Y-1413905D01*
X96723209Y-1468066D01*
X96711644Y-1530197D01*
X96698598Y-1599125D01*
X96684284Y-1673678D01*
X96668918Y-1752682D01*
X96657702Y-1809750D01*
X96641716Y-1890789D01*
X96626522Y-1967893D01*
X96612344Y-2039926D01*
X96599404Y-2105752D01*
X96587925Y-2164235D01*
X96578131Y-2214238D01*
X96570243Y-2254627D01*
X96564485Y-2284264D01*
X96561080Y-2302013D01*
X96560210Y-2306797D01*
X96119344Y-2306797D01*
X96129713Y-2251602D01*
X96143301Y-2180322D01*
X96158201Y-2103116D01*
X96174202Y-2021115D01*
X96191092Y-1935448D01*
X96195150Y-1914994D01*
X96303186Y-1371128D01*
X96284526Y-1324484D01*
X96265718Y-1260547D01*
X96260444Y-1198106D01*
X96268140Y-1138030D01*
X96288242Y-1081189D01*
X96320186Y-1028450D01*
X96363409Y-980684D01*
X96417347Y-938759D01*
X96481437Y-903545D01*
X96555114Y-875910D01*
X96579972Y-868977D01*
X96674784Y-849954D01*
X96779670Y-838783D01*
X96893051Y-835357D01*
X97013349Y-839569D01*
G37*
X97013349Y-839569D02*
X97138983Y-851313D01*
X97268376Y-870482D01*
X97399949Y-896970D01*
X97532121Y-930670D01*
X97543815Y-934002D01*
X97656468Y-969404D01*
X97759327Y-1008300D01*
X97856582Y-1052297D01*
X97871138Y-1059532D01*
X97934811Y-1093416D01*
X97988532Y-1126506D01*
X98036043Y-1161416D01*
X98081085Y-1200758D01*
X98101122Y-1220182D01*
X98132793Y-1253167D01*
X98156378Y-1281662D01*
X98174984Y-1309768D01*
X98189316Y-1336642D01*
X98201147Y-1361217D01*
X98208987Y-1380283D01*
X98213658Y-1397938D01*
X98215981Y-1418281D01*
X98216775Y-1445411D01*
X98216861Y-1474226D01*
X98216609Y-1510313D01*
X98215404Y-1536246D01*
X98212569Y-1555982D01*
X98207428Y-1573476D01*
X98199306Y-1592683D01*
X98195060Y-1601752D01*
X98178673Y-1630900D01*
X98156829Y-1662771D01*
X98134704Y-1689946D01*
X98096149Y-1732138D01*
X97987969Y-2277733D01*
X97966333Y-2386479D01*
X97947157Y-2482034D01*
X97930293Y-2565077D01*
X97915595Y-2636286D01*
X97902918Y-2696339D01*
X97892114Y-2745914D01*
X97883037Y-2785690D01*
X97875540Y-2816343D01*
X97869477Y-2838553D01*
X97864702Y-2852998D01*
X97862713Y-2857597D01*
X97836758Y-2896303D01*
X97801377Y-2930466D01*
X97761256Y-2955631D01*
X97758006Y-2957112D01*
X97747596Y-2961663D01*
X97737651Y-2965573D01*
X97727339Y-2968717D01*
X97715825Y-2970971D01*
X97702274Y-2972212D01*
X97685852Y-2972316D01*
X97665724Y-2971159D01*
X97641057Y-2968618D01*
X97611016Y-2964568D01*
X97574766Y-2958886D01*
X97531474Y-2951448D01*
X97480305Y-2942130D01*
X97420424Y-2930809D01*
X97350997Y-2917360D01*
X97271190Y-2901660D01*
X97180169Y-2883585D01*
X97077098Y-2863012D01*
X96961145Y-2839816D01*
X96943333Y-2836252D01*
X96809114Y-2809306D01*
X96688657Y-2784938D01*
X96581855Y-2763125D01*
X96488601Y-2743845D01*
X96408787Y-2727074D01*
X96342307Y-2712790D01*
X96289053Y-2700970D01*
X96248917Y-2691591D01*
X96221793Y-2684631D01*
X96207573Y-2680066D01*
X96207047Y-2679831D01*
X96165827Y-2653240D01*
X96131447Y-2616403D01*
X96105789Y-2572286D01*
X96090738Y-2523853D01*
X96087536Y-2491592D01*
X96088826Y-2479586D01*
X96092694Y-2454877D01*
X96098927Y-2418595D01*
X96107315Y-2371869D01*
X96117648Y-2315828D01*
X96119344Y-2306797D01*
X96560210Y-2306797D01*
X96562624Y-2309429D01*
X96571021Y-2312963D01*
X96586208Y-2317580D01*
X96608990Y-2323458D01*
X96640175Y-2330776D01*
X96680570Y-2339716D01*
X96730980Y-2350455D01*
X96792212Y-2363174D01*
X96865074Y-2378052D01*
X96950372Y-2395269D01*
X97024472Y-2410120D01*
X97103509Y-2425920D01*
X97178463Y-2440898D01*
X97248190Y-2454825D01*
X97311544Y-2467474D01*
X97367381Y-2478614D01*
X97414556Y-2488019D01*
X97451925Y-2495460D01*
X97478343Y-2500709D01*
X97492666Y-2503537D01*
X97494955Y-2503975D01*
X97500679Y-2498914D01*
X97503403Y-2492375D01*
X97505357Y-2483540D01*
X97509827Y-2462011D01*
X97516580Y-2428936D01*
X97525387Y-2385463D01*
X97536016Y-2332739D01*
X97548236Y-2271911D01*
X97561816Y-2204128D01*
X97576525Y-2130536D01*
X97592132Y-2052284D01*
X97603074Y-1997328D01*
X97619279Y-1916321D01*
X97634913Y-1839021D01*
X97649729Y-1766600D01*
X97663478Y-1700228D01*
X97675913Y-1641078D01*
X97686786Y-1590321D01*
X97695851Y-1549127D01*
X97702858Y-1518668D01*
X97707561Y-1500115D01*
X97709278Y-1494970D01*
X97716395Y-1480118D01*
X97719442Y-1471596D01*
X97719444Y-1471522D01*
X97713310Y-1465979D01*
X97696544Y-1456319D01*
X97671602Y-1443703D01*
X97640940Y-1429291D01*
X97607014Y-1414243D01*
X97572279Y-1399720D01*
X97544418Y-1388829D01*
X97424437Y-1349187D01*
X97296038Y-1316761D01*
X97163340Y-1292293D01*
X97030463Y-1276522D01*
X96901525Y-1270187D01*
X96883404Y-1270096D01*
X96836588Y-1270257D01*
X96802076Y-1270919D01*
X96778061Y-1272498D01*
X96762736Y-1275406D01*
X96754293Y-1280061D01*
X96750926Y-1286875D01*
X96750827Y-1296264D01*
X96751252Y-1300425D01*
X96750332Y-1310974D01*
X96746852Y-1334186D01*
X96741028Y-1368887D01*
X96733075Y-1413905D01*
X96723209Y-1468066D01*
X96711644Y-1530197D01*
X96698598Y-1599125D01*
X96684284Y-1673678D01*
X96668918Y-1752682D01*
X96657702Y-1809750D01*
X96641716Y-1890789D01*
X96626522Y-1967893D01*
X96612344Y-2039926D01*
X96599404Y-2105752D01*
X96587925Y-2164235D01*
X96578131Y-2214238D01*
X96570243Y-2254627D01*
X96564485Y-2284264D01*
X96561080Y-2302013D01*
X96560210Y-2306797D01*
X96119344Y-2306797D01*
X96129713Y-2251602D01*
X96143301Y-2180322D01*
X96158201Y-2103116D01*
X96174202Y-2021115D01*
X96191092Y-1935448D01*
X96195150Y-1914994D01*
X96303186Y-1371128D01*
X96284526Y-1324484D01*
X96265718Y-1260547D01*
X96260444Y-1198106D01*
X96268140Y-1138030D01*
X96288242Y-1081189D01*
X96320186Y-1028450D01*
X96363409Y-980684D01*
X96417347Y-938759D01*
X96481437Y-903545D01*
X96555114Y-875910D01*
X96579972Y-868977D01*
X96674784Y-849954D01*
X96779670Y-838783D01*
X96893051Y-835357D01*
X97013349Y-839569D01*
D11*
X86360000Y-12065000D03*
X88900000Y-12065000D03*
X86360000Y-14605000D03*
X88900000Y-14605000D03*
X86360000Y-17145000D03*
X88900000Y-17145000D03*
X86360000Y-19685000D03*
X88900000Y-19685000D03*
X86360000Y-22225000D03*
X88900000Y-22225000D03*
X86360000Y-24765000D03*
X88900000Y-24765000D03*
X86360000Y-27305000D03*
X88900000Y-27305000D03*
X86360000Y-29845000D03*
X88900000Y-29845000D03*
D12*
X10160000Y-17145000D03*
D13*
X10160000Y-24765000D03*
D14*
X34290000Y-14605000D03*
D13*
X34290000Y-7105000D03*
X34290000Y-27305000D03*
D14*
X34290000Y-34805000D03*
D15*
X19685000Y-15875000D03*
D16*
X19685000Y-5715000D03*
X19685000Y-26035000D03*
D15*
X19685000Y-36195000D03*
D17*
X78105000Y-20955000D03*
D18*
X80645000Y-20955000D03*
D17*
X78105000Y-34925000D03*
D18*
X80645000Y-34925000D03*
X80645000Y-6985000D03*
D17*
X78105000Y-6985000D03*
D19*
X70485000Y-17145000D03*
D20*
X70485000Y-24765000D03*
X70485000Y-38735000D03*
D19*
X70485000Y-31115000D03*
D20*
X70485000Y-3175000D03*
D19*
X70485000Y-10795000D03*
D21*
X53975000Y-18415000D03*
D22*
X53975000Y-20955000D03*
X53975000Y-23495000D03*
D21*
X53975000Y-32385000D03*
D22*
X53975000Y-34925000D03*
X53975000Y-37465000D03*
X53975000Y-9525000D03*
X53975000Y-6985000D03*
D21*
X53975000Y-4445000D03*
D20*
X45720000Y-23415000D03*
D23*
X45720000Y-18415000D03*
X45720000Y-32385000D03*
D20*
X45720000Y-37385000D03*
D23*
X45720000Y-4445000D03*
D20*
X45720000Y-9445000D03*
X66040000Y-23415000D03*
D23*
X66040000Y-18415000D03*
X66040000Y-32385000D03*
D20*
X66040000Y-37385000D03*
X66040000Y-9445000D03*
D23*
X66040000Y-4445000D03*
D24*
X49530000Y-3175000D03*
X74930000Y-38735000D03*
X24130000Y-38735000D03*
X24130000Y-3175000D03*
X49530000Y-38735000D03*
X74930000Y-3175000D03*
D25*
X86360000Y-12065000D02*
X88900000Y-12065000D01*
X88900000Y-14605000D02*
X86360000Y-14605000D01*
X21075000Y-7105000D02*
X19685000Y-5715000D01*
X34290000Y-7105000D02*
X21075000Y-7105000D01*
X36950000Y-4445000D02*
X34290000Y-7105000D01*
X45720000Y-4445000D02*
X36950000Y-4445000D01*
X48260000Y-6985000D02*
X45720000Y-4445000D01*
X51060168Y-6985000D02*
X48260000Y-6985000D01*
X53600168Y-4445000D02*
X51060168Y-6985000D01*
X53975000Y-4445000D02*
X53600168Y-4445000D01*
X42650000Y-18415000D02*
X43170000Y-18415000D01*
X43170000Y-18415000D02*
X45720000Y-18415000D01*
X34290000Y-10055000D02*
X42650000Y-18415000D01*
X34290000Y-7105000D02*
X34290000Y-10055000D01*
X45720000Y-18415000D02*
X53975000Y-18415000D01*
X21075000Y-34805000D02*
X19685000Y-36195000D01*
X34290000Y-34805000D02*
X21075000Y-34805000D01*
X36870000Y-37385000D02*
X34290000Y-34805000D01*
X45720000Y-37385000D02*
X36870000Y-37385000D01*
X48180000Y-34925000D02*
X45720000Y-37385000D01*
X53975000Y-34925000D02*
X48180000Y-34925000D01*
X60960000Y-23495000D02*
X66040000Y-18415000D01*
X53975000Y-23495000D02*
X60960000Y-23495000D01*
X88900000Y-19685000D02*
X86360000Y-19685000D01*
X71616370Y-17145000D02*
X70485000Y-17145000D01*
X82617919Y-17145000D02*
X71616370Y-17145000D01*
X85157919Y-19685000D02*
X82617919Y-17145000D01*
X86360000Y-19685000D02*
X85157919Y-19685000D01*
X69215000Y-18415000D02*
X70485000Y-17145000D01*
X66040000Y-18415000D02*
X69215000Y-18415000D01*
X65960000Y-37465000D02*
X66040000Y-37385000D01*
X53975000Y-37465000D02*
X65960000Y-37465000D01*
X66040000Y-37385000D02*
X70485000Y-32940000D01*
X70485000Y-32940000D02*
X70485000Y-31115000D01*
X88900000Y-29845000D02*
X86360000Y-29845000D01*
X71755000Y-29845000D02*
X70485000Y-31115000D01*
X86360000Y-29845000D02*
X71755000Y-29845000D01*
X60960000Y-9525000D02*
X66040000Y-4445000D01*
X53975000Y-9525000D02*
X60960000Y-9525000D01*
X88900000Y-17145000D02*
X86360000Y-17145000D01*
X69215000Y-4445000D02*
X70485000Y-3175000D01*
X66040000Y-4445000D02*
X69215000Y-4445000D01*
X86050998Y-17145000D02*
X86360000Y-17145000D01*
X83510998Y-14605000D02*
X86050998Y-17145000D01*
X70485000Y-3175000D02*
X74930000Y-7620000D01*
X83510998Y-14605000D02*
X79375000Y-14605000D01*
X79375000Y-14605000D02*
X74930000Y-10160000D01*
X74930000Y-10160000D02*
X74930000Y-7620000D01*
X19685000Y-20955000D02*
X19685000Y-15875000D01*
X19685000Y-20955000D02*
X19685000Y-26035000D01*
X15172081Y-20955000D02*
X19685000Y-20955000D01*
X10160000Y-17145000D02*
X13970000Y-20955000D01*
X13970000Y-20955000D02*
X15172081Y-20955000D01*
M02*
