G04 #@! TF.GenerationSoftware,KiCad,Pcbnew,5.1.7-a382d34a8~87~ubuntu16.04.1*
G04 #@! TF.CreationDate,2021-01-01T21:30:34+01:00*
G04 #@! TF.ProjectId,basic-eurorack-power-supply,62617369-632d-4657-9572-6f7261636b2d,rev?*
G04 #@! TF.SameCoordinates,Original*
G04 #@! TF.FileFunction,Soldermask,Bot*
G04 #@! TF.FilePolarity,Negative*
%FSLAX46Y46*%
G04 Gerber Fmt 4.6, Leading zero omitted, Abs format (unit mm)*
G04 Created by KiCad (PCBNEW 5.1.7-a382d34a8~87~ubuntu16.04.1) date 2021-01-01 21:30:34*
%MOMM*%
%LPD*%
G01*
G04 APERTURE LIST*
%ADD10O,1.802000X1.802000*%
%ADD11O,2.502000X2.502000*%
%ADD12C,2.502000*%
%ADD13O,2.302000X2.302000*%
%ADD14C,1.902000*%
%ADD15O,1.702000X1.702000*%
%ADD16C,1.702000*%
%ADD17O,2.102000X2.007000*%
G04 APERTURE END LIST*
D10*
X86360000Y-12065000D03*
X88900000Y-12065000D03*
X86360000Y-14605000D03*
X88900000Y-14605000D03*
X86360000Y-17145000D03*
X88900000Y-17145000D03*
X86360000Y-19685000D03*
X88900000Y-19685000D03*
X86360000Y-22225000D03*
X88900000Y-22225000D03*
X86360000Y-24765000D03*
X88900000Y-24765000D03*
X86360000Y-27305000D03*
X88900000Y-27305000D03*
X86360000Y-29845000D03*
X88900000Y-29845000D03*
D11*
X10160000Y-17145000D03*
G36*
G01*
X8909000Y-25965000D02*
X8909000Y-23565000D01*
G75*
G02*
X8960000Y-23514000I51000J0D01*
G01*
X11360000Y-23514000D01*
G75*
G02*
X11411000Y-23565000I0J-51000D01*
G01*
X11411000Y-25965000D01*
G75*
G02*
X11360000Y-26016000I-51000J0D01*
G01*
X8960000Y-26016000D01*
G75*
G02*
X8909000Y-25965000I0J51000D01*
G01*
G37*
D12*
X34290000Y-14605000D03*
G36*
G01*
X33090000Y-5854000D02*
X35490000Y-5854000D01*
G75*
G02*
X35541000Y-5905000I0J-51000D01*
G01*
X35541000Y-8305000D01*
G75*
G02*
X35490000Y-8356000I-51000J0D01*
G01*
X33090000Y-8356000D01*
G75*
G02*
X33039000Y-8305000I0J51000D01*
G01*
X33039000Y-5905000D01*
G75*
G02*
X33090000Y-5854000I51000J0D01*
G01*
G37*
G36*
G01*
X33090000Y-26054000D02*
X35490000Y-26054000D01*
G75*
G02*
X35541000Y-26105000I0J-51000D01*
G01*
X35541000Y-28505000D01*
G75*
G02*
X35490000Y-28556000I-51000J0D01*
G01*
X33090000Y-28556000D01*
G75*
G02*
X33039000Y-28505000I0J51000D01*
G01*
X33039000Y-26105000D01*
G75*
G02*
X33090000Y-26054000I51000J0D01*
G01*
G37*
X34290000Y-34805000D03*
D13*
X19685000Y-15875000D03*
G36*
G01*
X18585000Y-4564000D02*
X20785000Y-4564000D01*
G75*
G02*
X20836000Y-4615000I0J-51000D01*
G01*
X20836000Y-6815000D01*
G75*
G02*
X20785000Y-6866000I-51000J0D01*
G01*
X18585000Y-6866000D01*
G75*
G02*
X18534000Y-6815000I0J51000D01*
G01*
X18534000Y-4615000D01*
G75*
G02*
X18585000Y-4564000I51000J0D01*
G01*
G37*
G36*
G01*
X18585000Y-24884000D02*
X20785000Y-24884000D01*
G75*
G02*
X20836000Y-24935000I0J-51000D01*
G01*
X20836000Y-27135000D01*
G75*
G02*
X20785000Y-27186000I-51000J0D01*
G01*
X18585000Y-27186000D01*
G75*
G02*
X18534000Y-27135000I0J51000D01*
G01*
X18534000Y-24935000D01*
G75*
G02*
X18585000Y-24884000I51000J0D01*
G01*
G37*
X19685000Y-36195000D03*
G36*
G01*
X77154000Y-21855000D02*
X77154000Y-20055000D01*
G75*
G02*
X77205000Y-20004000I51000J0D01*
G01*
X79005000Y-20004000D01*
G75*
G02*
X79056000Y-20055000I0J-51000D01*
G01*
X79056000Y-21855000D01*
G75*
G02*
X79005000Y-21906000I-51000J0D01*
G01*
X77205000Y-21906000D01*
G75*
G02*
X77154000Y-21855000I0J51000D01*
G01*
G37*
D14*
X80645000Y-20955000D03*
G36*
G01*
X77154000Y-35825000D02*
X77154000Y-34025000D01*
G75*
G02*
X77205000Y-33974000I51000J0D01*
G01*
X79005000Y-33974000D01*
G75*
G02*
X79056000Y-34025000I0J-51000D01*
G01*
X79056000Y-35825000D01*
G75*
G02*
X79005000Y-35876000I-51000J0D01*
G01*
X77205000Y-35876000D01*
G75*
G02*
X77154000Y-35825000I0J51000D01*
G01*
G37*
X80645000Y-34925000D03*
X80645000Y-6985000D03*
G36*
G01*
X77154000Y-7885000D02*
X77154000Y-6085000D01*
G75*
G02*
X77205000Y-6034000I51000J0D01*
G01*
X79005000Y-6034000D01*
G75*
G02*
X79056000Y-6085000I0J-51000D01*
G01*
X79056000Y-7885000D01*
G75*
G02*
X79005000Y-7936000I-51000J0D01*
G01*
X77205000Y-7936000D01*
G75*
G02*
X77154000Y-7885000I0J51000D01*
G01*
G37*
D15*
X70485000Y-17145000D03*
D16*
X70485000Y-24765000D03*
X70485000Y-38735000D03*
D15*
X70485000Y-31115000D03*
D16*
X70485000Y-3175000D03*
D15*
X70485000Y-10795000D03*
G36*
G01*
X52975000Y-17411500D02*
X54975000Y-17411500D01*
G75*
G02*
X55026000Y-17462500I0J-51000D01*
G01*
X55026000Y-19367500D01*
G75*
G02*
X54975000Y-19418500I-51000J0D01*
G01*
X52975000Y-19418500D01*
G75*
G02*
X52924000Y-19367500I0J51000D01*
G01*
X52924000Y-17462500D01*
G75*
G02*
X52975000Y-17411500I51000J0D01*
G01*
G37*
D17*
X53975000Y-20955000D03*
X53975000Y-23495000D03*
G36*
G01*
X52975000Y-31381500D02*
X54975000Y-31381500D01*
G75*
G02*
X55026000Y-31432500I0J-51000D01*
G01*
X55026000Y-33337500D01*
G75*
G02*
X54975000Y-33388500I-51000J0D01*
G01*
X52975000Y-33388500D01*
G75*
G02*
X52924000Y-33337500I0J51000D01*
G01*
X52924000Y-31432500D01*
G75*
G02*
X52975000Y-31381500I51000J0D01*
G01*
G37*
X53975000Y-34925000D03*
X53975000Y-37465000D03*
X53975000Y-9525000D03*
X53975000Y-6985000D03*
G36*
G01*
X52975000Y-3441500D02*
X54975000Y-3441500D01*
G75*
G02*
X55026000Y-3492500I0J-51000D01*
G01*
X55026000Y-5397500D01*
G75*
G02*
X54975000Y-5448500I-51000J0D01*
G01*
X52975000Y-5448500D01*
G75*
G02*
X52924000Y-5397500I0J51000D01*
G01*
X52924000Y-3492500D01*
G75*
G02*
X52975000Y-3441500I51000J0D01*
G01*
G37*
D16*
X45720000Y-23415000D03*
G36*
G01*
X44920000Y-17564000D02*
X46520000Y-17564000D01*
G75*
G02*
X46571000Y-17615000I0J-51000D01*
G01*
X46571000Y-19215000D01*
G75*
G02*
X46520000Y-19266000I-51000J0D01*
G01*
X44920000Y-19266000D01*
G75*
G02*
X44869000Y-19215000I0J51000D01*
G01*
X44869000Y-17615000D01*
G75*
G02*
X44920000Y-17564000I51000J0D01*
G01*
G37*
G36*
G01*
X44920000Y-31534000D02*
X46520000Y-31534000D01*
G75*
G02*
X46571000Y-31585000I0J-51000D01*
G01*
X46571000Y-33185000D01*
G75*
G02*
X46520000Y-33236000I-51000J0D01*
G01*
X44920000Y-33236000D01*
G75*
G02*
X44869000Y-33185000I0J51000D01*
G01*
X44869000Y-31585000D01*
G75*
G02*
X44920000Y-31534000I51000J0D01*
G01*
G37*
X45720000Y-37385000D03*
G36*
G01*
X44920000Y-3594000D02*
X46520000Y-3594000D01*
G75*
G02*
X46571000Y-3645000I0J-51000D01*
G01*
X46571000Y-5245000D01*
G75*
G02*
X46520000Y-5296000I-51000J0D01*
G01*
X44920000Y-5296000D01*
G75*
G02*
X44869000Y-5245000I0J51000D01*
G01*
X44869000Y-3645000D01*
G75*
G02*
X44920000Y-3594000I51000J0D01*
G01*
G37*
X45720000Y-9445000D03*
X66040000Y-23415000D03*
G36*
G01*
X65240000Y-17564000D02*
X66840000Y-17564000D01*
G75*
G02*
X66891000Y-17615000I0J-51000D01*
G01*
X66891000Y-19215000D01*
G75*
G02*
X66840000Y-19266000I-51000J0D01*
G01*
X65240000Y-19266000D01*
G75*
G02*
X65189000Y-19215000I0J51000D01*
G01*
X65189000Y-17615000D01*
G75*
G02*
X65240000Y-17564000I51000J0D01*
G01*
G37*
G36*
G01*
X65240000Y-31534000D02*
X66840000Y-31534000D01*
G75*
G02*
X66891000Y-31585000I0J-51000D01*
G01*
X66891000Y-33185000D01*
G75*
G02*
X66840000Y-33236000I-51000J0D01*
G01*
X65240000Y-33236000D01*
G75*
G02*
X65189000Y-33185000I0J51000D01*
G01*
X65189000Y-31585000D01*
G75*
G02*
X65240000Y-31534000I51000J0D01*
G01*
G37*
X66040000Y-37385000D03*
X66040000Y-9445000D03*
G36*
G01*
X65240000Y-3594000D02*
X66840000Y-3594000D01*
G75*
G02*
X66891000Y-3645000I0J-51000D01*
G01*
X66891000Y-5245000D01*
G75*
G02*
X66840000Y-5296000I-51000J0D01*
G01*
X65240000Y-5296000D01*
G75*
G02*
X65189000Y-5245000I0J51000D01*
G01*
X65189000Y-3645000D01*
G75*
G02*
X65240000Y-3594000I51000J0D01*
G01*
G37*
M02*
