M48
; DRILL file {KiCad 5.1.7-a382d34a8~87~ubuntu16.04.1} date Fri Jan  1 21:30:32 2021
; FORMAT={-:-/ absolute / metric / decimal}
; #@! TF.CreationDate,2021-01-01T21:30:32+01:00
; #@! TF.GenerationSoftware,Kicad,Pcbnew,5.1.7-a382d34a8~87~ubuntu16.04.1
; #@! TF.FileFunction,Plated,1,2,PTH
FMAT,2
METRIC
T1C0.800
T2C0.900
T3C1.000
T4C1.100
T5C1.200
T6C3.200
%
G90
G05
T1
X45.72Y-32.385
X70.485Y-3.175
X70.485Y-10.795
X70.485Y-31.115
X70.485Y-38.735
X66.04Y-4.445
X66.04Y-9.445
X66.04Y-18.415
X66.04Y-23.415
X66.04Y-32.385
X66.04Y-37.385
X70.485Y-17.145
X70.485Y-24.765
X45.72Y-18.415
X45.72Y-23.415
X45.72Y-37.385
X45.72Y-4.445
X45.72Y-9.445
T2
X78.105Y-6.985
X80.645Y-6.985
X78.105Y-34.925
X80.645Y-34.925
X78.105Y-20.955
X80.645Y-20.955
T3
X86.36Y-12.065
X86.36Y-14.605
X86.36Y-17.145
X86.36Y-19.685
X86.36Y-22.225
X86.36Y-24.765
X86.36Y-27.305
X86.36Y-29.845
X88.9Y-12.065
X88.9Y-14.605
X88.9Y-17.145
X88.9Y-19.685
X88.9Y-22.225
X88.9Y-24.765
X88.9Y-27.305
X88.9Y-29.845
T4
X19.685Y-26.035
X19.685Y-36.195
X53.975Y-18.415
X53.975Y-20.955
X53.975Y-23.495
X53.975Y-4.445
X53.975Y-6.985
X53.975Y-9.525
X19.685Y-5.715
X19.685Y-15.875
X53.975Y-32.385
X53.975Y-34.925
X53.975Y-37.465
T5
X10.16Y-17.145
X10.16Y-24.765
X34.29Y-7.105
X34.29Y-14.605
X34.29Y-27.305
X34.29Y-34.805
T6
X24.13Y-3.175
X24.13Y-38.735
X49.53Y-3.175
X49.53Y-38.735
X74.93Y-3.175
X74.93Y-38.735
T0
M30
